<svg width="40" height="32" fill="none" xmlns="http://www.w3.org/2000/svg" aria-labelledby="logo-title" aria-describedby="logo-description">
  <title id="logo-title">Harley Davidson logo</title>
  <desc id="logo-description">White badge with only the outlines</desc>
  <path fill-rule="evenodd" clip-rule="evenodd" d="M2.47 18.875h35.06v-5.458H2.47v5.458zm27.993 4.88S25.938 27.84 20 29.315c-5.938-1.475-10.46-5.56-10.46-5.56 1.347-.799 1.802-1.83 1.954-2.468h17.013c.153.639.606 1.67 1.956 2.468zM9.5 7.452s5.098.265 10.5-3.707c5.402 3.972 10.5 3.707 10.5 3.707-1.653 1.66-1.928 2.983-1.962 3.553H11.461c-.033-.57-.307-1.894-1.961-3.553zM40 11.005h-8.788c.052-1.38 1.856-2.04 1.856-2.04V5.409C23.255 4.88 20 0 20 0S16.745 4.88 6.932 5.41v3.555s1.804.66 1.856 2.04H0v10.282h8.759c-.501 1.773-2.997 2.222-2.997 2.222C12.912 30.829 20 32 20 32s7.09-1.172 14.237-8.491c0 0-2.496-.45-2.995-2.222H40V11.005z" fill="#fff"/>
</svg>
