<svg xmlns="http://www.w3.org/2000/svg" viewBox="0 0 192.7 192.7">
  <path fill-rule="evenodd" clip-rule="evenodd" d="M189.9 70.5h-39.7c.2-4.3 3.8-7.6 8.1-7.6V45.1c-36.7-1.3-53.9-13.3-61.8-19.3-7.9 6.1-25.1 18-61.8 19.3v17.8c4.3 0 7.8 3.4 8.1 7.6h-40v49.1h37.1c0 1.6-.8 6.2-10.8 7.3 6.8 6.3 46.7 40.1 67.4 40.1 20.7 0 60.6-33.8 67.5-40.1-9.3-1-10.8-5.1-10.8-7.3H190V70.5h-.1zM38.7 59.8V48.7C71.9 47 88.3 37.1 96.5 31c8.8 6.2 24.5 16.1 57.7 17.8v11.1c-4.5 1.6-7.8 5.6-7.9 10.6h-4c.1-5.7 3.3-10.4 7.9-13.1v-5c-26.8-1.9-44.3-10.2-53.6-16.6-8.1 6-24.5 14-53.7 16.6v5c4.6 2.7 7.7 7.4 7.9 13.1h-4c-.3-5-3.6-9-8.1-10.7zm99.9 6.2v4.5h-4.3V67c0-1.1-1.3-1.6-1.9-1.6h-4.2v5.2h-4.3V51.4l10.4 2.2c1.5.3 4.3 1.3 4.3 4.2v3.1c0 1.1-.1 2.1-1.5 2.8.7.3 1.5 1.5 1.5 2.3zm-18.4-11.4v11.6c0 1.4-.8 4.2-4.6 4.2h-5.7c-1.9 0-4.3-1-4.3-4.4V49c0-2 2.1-3.3 4.4-2.5l7.6 2.9c1.8.8 2.6 2.5 2.6 5.2zm-31.6-5.3v-4.8l7.9-4.3 8.3 4.5v4.8l-5.8-3v24h-4.7V46.2l-5.7 3.1zm-.6-.2v17c0 3.4-2.4 4.4-4.3 4.4H78c-3.8 0-4.6-2.8-4.6-4.2V54.6c0-2.8.8-4.4 2.6-5.1l7.6-2.9c2.3-.8 4.4.5 4.4 2.5zM63.1 70.5l-3.6-7.6v7.6h-4.3v-16l4.3-.8L63 61l3.8-8.8 4.1-1.1v19.4h-4.3v-7.9l-3.5 7.9zm91.6 58.1c-10.9 11.1-43.8 34.2-58.2 34.2-14.4 0-47.2-23.1-58.1-34.2 5.6-2.5 6.6-6.1 6.9-9h4.5c-.3 2.7-.8 7-4.5 9.5 4.2 4.1 36.1 29.5 51.2 29.5 15.1 0 47.1-25.5 51.3-29.5-3.7-2.6-4.2-6.9-4.5-9.5h4.5c.3 2.9 1.3 6.5 6.9 9zm-95.5 2.6c.2.2 10 7.8 10 7.8v4.6s-13.7-10.2-14.1-10.5c-.5-.3-1.2-1.5-1.3-2.3-.2-.8 0-7.4 0-8.2 0-.7.8-3 2-3h10.7v4.4H60c-1-.1-1.6.2-1.6 1.2v4.9c0 .2.5.9.8 1.1zm9.7-11.6h4.5l2.4 7.4 3.9-7.4h4.2l-6 13.1v15.6c0 .7-4.2-1.6-4.3-2.1-.2-.6 0-13.6 0-13.6l-4.7-13zm20.9 28.3c.2.5 5.7 3.1 5.7 3.1v5.1s-8.8-3.7-9.6-4.5c-.9-.9-1-1.9-1-2.3v-25.9c0-1.6 3.1-3.7 3.9-3.7h6.4v4.7c0 .2-3.7.2-4.6 0-.5-.1-1.2.6-1.2 2.9v19.2c0 .3 0 1 .4 1.4zm18.5-1.2v4.5s-7.3 3.2-8.4 3.8c-.7.3-1.4-.2-1.4-1.2v-34.1h5v29.1l4.8-2.1zM119 131v3.8h-4.6v9.2l5.6-2.6v4l-7.4 3.7c-.9.4-2.1 0-2.1-.8v-27c0-1.1.9-1.7 1.7-1.7h8.7v4.7h-6.4v6.7h4.5zm14.3.3s-7.3.2-8.6 0c-1.2-.2-1.7-.4-1.7-1.3 0-.8-.1-6.3 0-7.8.2-1.6 2.6-2.4 3.8-2.5 1.1-.1 10.9 0 10.9 0v4.3h-10.5c-.4 0-.3 3.6 0 3.6h9.4c1.3 0 1.2.3 1.2.9v5.3c0 .6-.8 1.2-1.2 1.6-.2.2-14 8.6-14 8.6v-3.7s11-6.9 11.1-7.4c.1-1-.4-1.6-.4-1.6zm52.6-15.8H6.9V75.2h179v40.3zM78.8 53.2l3.5-1.4c.6-.3 1.4 0 1.4 1v11.8c0 .8-.4 1.4-1.3 1.4h-3.2c-1 0-1.4-.5-1.4-1.3v-9.4c0-1 .1-1.6 1-2.1zm37 2.1v9.4c0 .8-.4 1.3-1.4 1.3h-3.2c-1 0-1.3-.6-1.3-1.4V52.8c0-1 .7-1.3 1.4-1l3.5 1.4c.9.5 1 1.1 1 2.1zm17.6 2.3c.9.2.9 1.1.9 1.8 0 .8-.1 1.5-1 1.5h-5.1v-4.4l5.2 1.1zM11.1 78.9v32.4h170.7V78.9H11.1zM27 107.5h-3.8V96.7h-3v10.8h-3.8V82.3h3.8v10.1h3V82.3H27v25.2zm8.8 0l-.7-6.6h-2.8l-.8 6.6h-3.4L31 82.3h5.6l2.9 25.2h-3.7zm15.7-17.3c0 1.9-.3 3.4-1.7 4.4.2.2 1.6 1.2 1.7 2.9v10h-3.8v-8.4c0-1.5-.6-2-3-2v10.5H41V82.3h6.2c3 0 4.4 1.1 4.4 4.3v3.6h-.1zm9.8 17.3h-7.6V82.3h3.8v21.3h3.8v3.9zm9.1 0h-7.8V82.3h7.8v3.9h-4v6.2h3.8v4h-3.8v7.2h4.1v3.9h-.1zm8.7 0h-3.8v-9.4l-3.9-15.8h3.9l2 8.8 2.1-8.8H83l-3.9 15.6v9.6zm9.6-11.1h-6.9v-3.2h6.9v3.2zm11.8 6.6c0 2.4-1.6 4.6-4.5 4.6h-5.4V82.3h4.5c3.7 0 5.3 1.3 5.3 5.7v15h.1zm8.6 4.5l-.7-6.6h-2.8l-.8 6.6h-3.4l2.9-25.2h5.6l2.9 25.2h-3.7zm10.4 0h-4.2l-3.5-25.2h3.8l1.8 15.2 1.8-15.2h3.8l-3.5 25.2zm8.3 0H124V82.3h3.8v25.2zm12.1-4.5c0 2.4-1.6 4.6-4.5 4.6H130V82.3h4.5c3.7 0 5.3 1.3 5.3 5.7v15h.1zm12.2-12.1h-3.8v-3.5c0-1.3-.8-1.6-1.5-1.6-.8 0-1.5.3-1.5 1.6v2.8c0 1.8 6.7 5 6.7 7.6v6.1c0 3.3-2.9 4.3-5.3 4.3-2.3 0-5.2-1-5.2-4.3v-5.5h3.8v4.5c0 1.3.7 1.6 1.4 1.6s1.5-.3 1.5-1.6v-2.7c0-3.5-6.7-4.5-6.7-8.6V86c0-3.3 2.9-4.3 5.2-4.3 2.3 0 5.3 1 5.3 4.3v4.9h.1zm12.2 12.9c0 3.3-3 4.3-5.3 4.3s-5.3-1-5.3-4.3V86c0-3.3 3-4.3 5.3-4.3s5.3 1 5.3 4.3v17.8zm12.9 3.7h-4.6l-3-14.4v14.4h-3.8V82.3h5.1l2.5 12.8V82.3h3.8v25.2zM32.8 96.7l.9-9.8h.2l.7 9.8h-1.8zm11.9-10.9h1.5c.9 0 1.4.6 1.4 1.6v3.8c0 .9-.3 2-1.6 2h-1.3v-7.4zm49.8.5h.9c1 0 1.4.2 1.4 1.9v13.5c0 1.6-.5 1.9-1.4 1.9h-.9V86.3zm11.6 10.4l.9-9.8h.2l.7 9.8h-1.8zm27.7-10.4h.9c1 0 1.4.2 1.4 1.9v13.5c0 1.6-.5 1.9-1.4 1.9h-.9V86.3zm23.7 16V87.4c0-1.3.8-1.6 1.5-1.6.8 0 1.5.3 1.5 1.6v14.8c0 1.3-.8 1.6-1.5 1.6-.8 0-1.5-.3-1.5-1.5z"/>
</svg>
